<svg width="153" height="44" viewBox="0 0 153 44" fill="none" xmlns="http://www.w3.org/2000/svg">
  <path
    d="M22 2V21.3302M22 2C17.7151 2 13.7449 3.3475 10.4901 5.64187M22 2C26.2835 2 30.2524 3.3466 33.5066 5.63956M15.3333 22.5891C15.8132 22.4259 16.3163 22.2749 16.844 22.1378C17.4276 21.9862 18.0349 21.8515 18.6667 21.736M15.3333 22.5891C7.74552 25.1707 5.9955 30.8228 5.43572 33.2118M15.3333 22.5891L3.7755 13.7499M18.6667 21.736C18.9038 21.6927 19.1444 21.652 19.3884 21.6142C19.9617 21.5253 20.5543 21.4519 21.1667 21.3955C21.4405 21.3703 21.7182 21.3485 22 21.3302M18.6667 21.736L10.4901 5.64187M22 21.3302C22.3686 21.3063 22.7441 21.2885 23.1265 21.2769C23.8378 21.2555 24.5731 21.256 25.3333 21.2803M25.3333 21.2803C25.7853 21.2948 26.246 21.3177 26.7157 21.3494C27.2759 21.3873 27.9355 21.4377 28.6667 21.5014M25.3333 21.2803L33.5066 5.63956M28.6667 21.5014L40.221 13.7421M28.6667 21.5014C32.4487 21.8306 38.1476 22.5142 41.9332 23.6466M5.43572 33.2118C9.03242 38.5152 15.1092 42 22 42C24.8243 42 27.5119 41.4146 29.948 40.3585M5.43572 33.2118C3.267 30.014 2 26.1549 2 22C2 19.0584 2.63504 16.2652 3.7755 13.7499M3.7755 13.7499C5.25624 10.4841 7.589 7.68688 10.4901 5.64187M33.5066 5.63956C36.4069 7.68315 38.7395 10.4785 40.221 13.7421M40.221 13.7421C41.3636 16.2594 42 19.0554 42 22C42 22.5544 41.9774 23.1036 41.9332 23.6466M41.9332 23.6466C41.9326 23.6533 41.9321 23.66 41.9315 23.6667M41.9315 23.6667C26.4791 23.6909 19.4039 31.9083 29.9167 40.3333L29.948 40.3585M41.9315 23.6667C41.3127 31.1672 36.5552 37.4941 29.948 40.3585"
    stroke="url(#paint0_linear_701_9)" stroke-width="3" />
  <path
    d="M63.2533 33.32C64.6756 33.32 65.9467 33.08 67.0667 32.6C68.2044 32.12 69.1644 31.4889 69.9467 30.7067C70.7289 29.9067 71.2889 29.0356 71.6267 28.0933L68.3733 26.5733C67.9822 27.5689 67.3422 28.3956 66.4533 29.0533C65.5822 29.6933 64.5156 30.0133 63.2533 30.0133C62.0089 30.0133 60.9156 29.72 59.9733 29.1333C59.0311 28.5467 58.2933 27.7378 57.76 26.7067C57.2267 25.6578 56.96 24.44 56.96 23.0533C56.96 21.6667 57.2267 20.4578 57.76 19.4267C58.2933 18.3778 59.0311 17.5689 59.9733 17C60.9156 16.4133 62.0089 16.12 63.2533 16.12C64.5156 16.12 65.5822 16.4489 66.4533 17.1067C67.3422 17.7467 67.9822 18.5644 68.3733 19.56L71.6267 18.04C71.2889 17.0978 70.7289 16.2356 69.9467 15.4533C69.1644 14.6533 68.2044 14.0133 67.0667 13.5333C65.9467 13.0533 64.6756 12.8133 63.2533 12.8133C61.8311 12.8133 60.5156 13.0711 59.3067 13.5867C58.0978 14.0844 57.0489 14.7956 56.16 15.72C55.2711 16.6267 54.5778 17.7111 54.08 18.9733C53.5822 20.2178 53.3333 21.5778 53.3333 23.0533C53.3333 24.5289 53.5822 25.8978 54.08 27.16C54.5778 28.4044 55.2711 29.4889 56.16 30.4133C57.0489 31.3378 58.0978 32.0578 59.3067 32.5733C60.5156 33.0711 61.8311 33.32 63.2533 33.32ZM78.4173 33.32C80.3017 33.32 81.8129 32.6978 82.9506 31.4533V33H86.2573V23.3467C86.2573 22.3333 85.9995 21.4356 85.484 20.6533C84.9684 19.8711 84.2573 19.2667 83.3506 18.84C82.4617 18.3956 81.4217 18.1733 80.2306 18.1733C78.7728 18.1733 77.4751 18.52 76.3373 19.2133C75.1995 19.9067 74.4173 20.8222 73.9906 21.96L76.844 23.3467C77.1106 22.6889 77.5284 22.1644 78.0973 21.7733C78.6662 21.3644 79.3328 21.16 80.0973 21.16C80.8973 21.16 81.5373 21.3733 82.0173 21.8C82.5151 22.2089 82.764 22.7244 82.764 23.3467V23.8267L78.444 24.52C76.7373 24.8044 75.4751 25.3467 74.6573 26.1467C73.8395 26.9467 73.4306 27.9511 73.4306 29.16C73.4306 30.44 73.884 31.4533 74.7906 32.2C75.6973 32.9467 76.9062 33.32 78.4173 33.32ZM77.0573 29.0267C77.0573 28.0133 77.7417 27.3733 79.1106 27.1067L82.764 26.4933V27.08C82.764 28.0756 82.4173 28.92 81.724 29.6133C81.0484 30.3067 80.1595 30.6533 79.0573 30.6533C78.4706 30.6533 77.9906 30.5111 77.6173 30.2267C77.244 29.9244 77.0573 29.5244 77.0573 29.0267ZM89.486 33H92.9794V24.4933C92.9794 23.5511 93.2372 22.7956 93.7527 22.2267C94.2683 21.6578 94.9438 21.3733 95.7794 21.3733C96.6327 21.3733 97.3083 21.6578 97.806 22.2267C98.3216 22.7778 98.5794 23.5333 98.5794 24.4933V33H102.073V24.4933C102.073 23.5511 102.33 22.7956 102.846 22.2267C103.362 21.6578 104.037 21.3733 104.873 21.3733C105.726 21.3733 106.402 21.6578 106.899 22.2267C107.415 22.7778 107.673 23.5333 107.673 24.4933V33H111.166V23.6667C111.166 22.5822 110.926 21.6311 110.446 20.8133C109.984 19.9778 109.353 19.3289 108.553 18.8667C107.753 18.4044 106.837 18.1733 105.806 18.1733C104.846 18.1733 103.975 18.3689 103.193 18.76C102.428 19.1511 101.797 19.7378 101.299 20.52C100.873 19.8089 100.259 19.24 99.4594 18.8133C98.6772 18.3867 97.7972 18.1733 96.8194 18.1733C95.9127 18.1733 95.1038 18.3511 94.3927 18.7067C93.6816 19.0622 93.1394 19.5956 92.766 20.3067V18.4933H89.486V33ZM114.121 16.8667H117.615V13.1333H114.121V16.8667ZM114.121 33H117.615V18.4933H114.121V33ZM120.84 33H124.334V24.4933C124.334 23.5511 124.6 22.7956 125.134 22.2267C125.685 21.6578 126.396 21.3733 127.267 21.3733C128.138 21.3733 128.84 21.6578 129.374 22.2267C129.925 22.7778 130.2 23.5333 130.2 24.4933V33H133.694V23.6667C133.694 22.5822 133.462 21.6311 133 20.8133C132.538 19.9778 131.889 19.3289 131.054 18.8667C130.236 18.4044 129.294 18.1733 128.227 18.1733C127.32 18.1733 126.502 18.3511 125.774 18.7067C125.062 19.0622 124.511 19.5867 124.12 20.28V18.4933H120.84V33ZM143.741 33.32C145.145 33.32 146.425 33 147.581 32.36C148.736 31.7022 149.661 30.8044 150.354 29.6667C151.048 28.5111 151.394 27.2044 151.394 25.7467C151.394 24.2889 151.048 22.9911 150.354 21.8533C149.679 20.7156 148.763 19.8178 147.608 19.16C146.452 18.5022 145.163 18.1733 143.741 18.1733C142.301 18.1733 141.003 18.5022 139.848 19.16C138.692 19.8178 137.768 20.7156 137.074 21.8533C136.399 22.9911 136.061 24.2889 136.061 25.7467C136.061 27.2044 136.399 28.5022 137.074 29.64C137.768 30.7778 138.692 31.6756 139.848 32.3333C141.021 32.9911 142.319 33.32 143.741 33.32ZM143.741 30.12C142.959 30.12 142.256 29.9333 141.634 29.56C141.03 29.1867 140.55 28.6711 140.194 28.0133C139.856 27.3378 139.688 26.5822 139.688 25.7467C139.688 24.9111 139.856 24.1644 140.194 23.5067C140.55 22.8489 141.03 22.3333 141.634 21.96C142.256 21.5689 142.959 21.3733 143.741 21.3733C144.523 21.3733 145.208 21.5689 145.794 21.96C146.399 22.3333 146.87 22.8489 147.208 23.5067C147.563 24.1644 147.741 24.9111 147.741 25.7467C147.741 26.5822 147.563 27.3378 147.208 28.0133C146.87 28.6711 146.399 29.1867 145.794 29.56C145.208 29.9333 144.523 30.12 143.741 30.12Z"
    fill="white" />
  <defs>
    <linearGradient id="paint0_linear_701_9" x1="2" y1="2" x2="42" y2="42"
      gradientUnits="userSpaceOnUse">
      <stop stop-color="#0085FF" />
      <stop offset="0.895243" stop-color="#B440FC" />
    </linearGradient>
  </defs>
</svg>