<svg width="153" height="44" viewBox="0 0 153 44" fill="none" xmlns="http://www.w3.org/2000/svg">
  <path
    d="M22 2V21.3302M22 2C17.7151 2 13.7449 3.3475 10.4901 5.64187M22 2C26.2835 2 30.2524 3.3466 33.5066 5.63956M15.3333 22.5891C15.8132 22.4259 16.3163 22.2749 16.844 22.1378C17.4276 21.9862 18.0349 21.8515 18.6667 21.736M15.3333 22.5891C7.74552 25.1707 5.9955 30.8228 5.43572 33.2118M15.3333 22.5891L3.7755 13.7499M18.6667 21.736C18.9038 21.6927 19.1444 21.652 19.3884 21.6142C19.9617 21.5253 20.5543 21.4519 21.1667 21.3955C21.4405 21.3703 21.7182 21.3485 22 21.3302M18.6667 21.736L10.4901 5.64187M22 21.3302C22.3686 21.3063 22.7441 21.2885 23.1265 21.2769C23.8378 21.2555 24.5731 21.256 25.3333 21.2803M25.3333 21.2803C25.7853 21.2948 26.246 21.3177 26.7157 21.3494C27.2759 21.3873 27.9355 21.4377 28.6667 21.5014M25.3333 21.2803L33.5066 5.63956M28.6667 21.5014L40.221 13.7421M28.6667 21.5014C32.4487 21.8306 38.1476 22.5142 41.9332 23.6466M5.43572 33.2118C9.03242 38.5152 15.1092 42 22 42C24.8243 42 27.5119 41.4146 29.948 40.3585M5.43572 33.2118C3.267 30.014 2 26.1549 2 22C2 19.0584 2.63504 16.2652 3.7755 13.7499M3.7755 13.7499C5.25624 10.4841 7.589 7.68688 10.4901 5.64187M33.5066 5.63956C36.4069 7.68315 38.7395 10.4785 40.221 13.7421M40.221 13.7421C41.3636 16.2594 42 19.0554 42 22C42 22.5544 41.9774 23.1036 41.9332 23.6466M41.9332 23.6466C41.9326 23.6533 41.9321 23.66 41.9315 23.6667M41.9315 23.6667C26.4791 23.6909 19.4039 31.9083 29.9167 40.3333L29.948 40.3585M41.9315 23.6667C41.3127 31.1672 36.5552 37.4941 29.948 40.3585"
    stroke="url(#paint0_linear_701_10)" stroke-width="3" />
  <path
    d="M63.2533 33.32C61.8311 33.32 60.5156 33.0622 59.3067 32.5467C58.1156 32.0311 57.0667 31.3111 56.16 30.3867C55.2711 29.4622 54.5778 28.3778 54.08 27.1333C53.5822 25.8889 53.3333 24.5289 53.3333 23.0533C53.3333 21.5778 53.5733 20.2178 54.0533 18.9733C54.5511 17.7111 55.2444 16.6267 56.1333 15.72C57.04 14.7956 58.0978 14.0844 59.3067 13.5867C60.5156 13.0711 61.8311 12.8133 63.2533 12.8133C64.6756 12.8133 65.9467 13.0533 67.0667 13.5333C68.2044 14.0133 69.1644 14.6533 69.9467 15.4533C70.7289 16.2356 71.2889 17.0978 71.6267 18.04L68.3733 19.56C68 18.5644 67.3689 17.7467 66.48 17.1067C65.5911 16.4489 64.5156 16.12 63.2533 16.12C62.0089 16.12 60.9067 16.4133 59.9467 17C59.0044 17.5867 58.2667 18.3956 57.7333 19.4267C57.2178 20.4578 56.96 21.6667 56.96 23.0533C56.96 24.44 57.2178 25.6578 57.7333 26.7067C58.2667 27.7378 59.0044 28.5467 59.9467 29.1333C60.9067 29.72 62.0089 30.0133 63.2533 30.0133C64.5156 30.0133 65.5911 29.6933 66.48 29.0533C67.3689 28.3956 68 27.5689 68.3733 26.5733L71.6267 28.0933C71.2889 29.0356 70.7289 29.9067 69.9467 30.7067C69.1644 31.4889 68.2044 32.12 67.0667 32.6C65.9467 33.08 64.6756 33.32 63.2533 33.32ZM78.4173 33.32C77.404 33.32 76.524 33.1511 75.7773 32.8133C75.0306 32.4756 74.4528 31.9956 74.044 31.3733C73.6351 30.7333 73.4306 29.9956 73.4306 29.16C73.4306 28.36 73.6084 27.6489 73.964 27.0267C74.3195 26.3867 74.8706 25.8533 75.6173 25.4267C76.364 25 77.3062 24.6978 78.444 24.52L83.1906 23.7467V26.4133L79.1106 27.1067C78.4173 27.2311 77.9017 27.4533 77.564 27.7733C77.2262 28.0933 77.0573 28.5111 77.0573 29.0267C77.0573 29.5244 77.244 29.9244 77.6173 30.2267C78.0084 30.5111 78.4884 30.6533 79.0573 30.6533C79.7862 30.6533 80.4262 30.5022 80.9773 30.2C81.5462 29.88 81.9817 29.4444 82.284 28.8933C82.604 28.3422 82.764 27.7378 82.764 27.08V23.3467C82.764 22.7244 82.5151 22.2089 82.0173 21.8C81.5373 21.3733 80.8973 21.16 80.0973 21.16C79.3506 21.16 78.684 21.3644 78.0973 21.7733C77.5284 22.1644 77.1106 22.6889 76.844 23.3467L73.9906 21.96C74.2751 21.1956 74.7195 20.5378 75.324 19.9867C75.9462 19.4178 76.6751 18.9733 77.5106 18.6533C78.3462 18.3333 79.2528 18.1733 80.2306 18.1733C81.4217 18.1733 82.4706 18.3956 83.3773 18.84C84.284 19.2667 84.9862 19.8711 85.484 20.6533C85.9995 21.4178 86.2573 22.3156 86.2573 23.3467V33H82.9506V30.52L83.6973 30.4667C83.324 31.0889 82.8795 31.6133 82.364 32.04C81.8484 32.4489 81.2617 32.7689 80.604 33C79.9462 33.2133 79.2173 33.32 78.4173 33.32ZM89.486 33V18.4933H92.766V21.8533L92.3927 21.2933C92.6594 20.2444 93.1927 19.4622 93.9927 18.9467C94.7927 18.4311 95.7349 18.1733 96.8194 18.1733C98.0105 18.1733 99.0594 18.4844 99.966 19.1067C100.873 19.7289 101.459 20.5467 101.726 21.56L100.739 21.64C101.184 20.4844 101.85 19.6222 102.739 19.0533C103.628 18.4667 104.65 18.1733 105.806 18.1733C106.837 18.1733 107.753 18.4044 108.553 18.8667C109.37 19.3289 110.01 19.9778 110.473 20.8133C110.935 21.6311 111.166 22.5822 111.166 23.6667V33H107.673V24.4933C107.673 23.8533 107.557 23.3022 107.326 22.84C107.095 22.3778 106.775 22.0222 106.366 21.7733C105.957 21.5067 105.459 21.3733 104.873 21.3733C104.322 21.3733 103.833 21.5067 103.406 21.7733C102.979 22.0222 102.65 22.3778 102.419 22.84C102.188 23.3022 102.073 23.8533 102.073 24.4933V33H98.5794V24.4933C98.5794 23.8533 98.4638 23.3022 98.2327 22.84C98.0016 22.3778 97.6727 22.0222 97.246 21.7733C96.8372 21.5067 96.3483 21.3733 95.7794 21.3733C95.2283 21.3733 94.7394 21.5067 94.3127 21.7733C93.886 22.0222 93.5572 22.3778 93.326 22.84C93.0949 23.3022 92.9794 23.8533 92.9794 24.4933V33H89.486ZM114.121 33V18.4933H117.615V33H114.121ZM114.121 16.8667V13.1333H117.615V16.8667H114.121ZM120.84 33V18.4933H124.12V21.3467L123.854 20.84C124.191 19.9689 124.742 19.3111 125.507 18.8667C126.289 18.4044 127.196 18.1733 128.227 18.1733C129.294 18.1733 130.236 18.4044 131.054 18.8667C131.889 19.3289 132.538 19.9778 133 20.8133C133.462 21.6311 133.694 22.5822 133.694 23.6667V33H130.2V24.4933C130.2 23.8533 130.076 23.3022 129.827 22.84C129.578 22.3778 129.231 22.0222 128.787 21.7733C128.36 21.5067 127.854 21.3733 127.267 21.3733C126.698 21.3733 126.191 21.5067 125.747 21.7733C125.302 22.0222 124.956 22.3778 124.707 22.84C124.458 23.3022 124.334 23.8533 124.334 24.4933V33H120.84ZM143.741 33.32C142.319 33.32 141.021 32.9911 139.848 32.3333C138.692 31.6756 137.768 30.7778 137.074 29.64C136.399 28.5022 136.061 27.2044 136.061 25.7467C136.061 24.2889 136.399 22.9911 137.074 21.8533C137.768 20.7156 138.692 19.8178 139.848 19.16C141.003 18.5022 142.301 18.1733 143.741 18.1733C145.163 18.1733 146.452 18.5022 147.608 19.16C148.763 19.8178 149.679 20.7156 150.354 21.8533C151.048 22.9733 151.394 24.2711 151.394 25.7467C151.394 27.2044 151.048 28.5022 150.354 29.64C149.661 30.7778 148.736 31.6756 147.581 32.3333C146.425 32.9911 145.145 33.32 143.741 33.32ZM143.741 30.12C144.523 30.12 145.208 29.9333 145.794 29.56C146.399 29.1867 146.87 28.6711 147.208 28.0133C147.563 27.3378 147.741 26.5822 147.741 25.7467C147.741 24.8933 147.563 24.1467 147.208 23.5067C146.87 22.8489 146.399 22.3333 145.794 21.96C145.208 21.5689 144.523 21.3733 143.741 21.3733C142.941 21.3733 142.239 21.5689 141.634 21.96C141.03 22.3333 140.55 22.8489 140.194 23.5067C139.856 24.1467 139.688 24.8933 139.688 25.7467C139.688 26.5822 139.856 27.3378 140.194 28.0133C140.55 28.6711 141.03 29.1867 141.634 29.56C142.239 29.9333 142.941 30.12 143.741 30.12Z"
    fill="#222222" />
  <defs>
    <linearGradient id="paint0_linear_701_10" x1="2" y1="2" x2="42" y2="42"
      gradientUnits="userSpaceOnUse">
      <stop stop-color="#0085FF" />
      <stop offset="0.895243" stop-color="#B440FC" />
    </linearGradient>
  </defs>
</svg>